<?xml version="1.0" encoding="UTF-8"?> <svg xmlns="http://www.w3.org/2000/svg" xmlns:xlink="http://www.w3.org/1999/xlink" width="50%" height="500px" viewBox="0 0 1500 1000"><!-- Generator: Sketch 52.6 (67491) - http://www.bohemiancoding.com/sketch --><title>fundamentals-r-course</title><desc>Created with Sketch.</desc><g id="Course-featured-images" stroke="none" stroke-width="1" fill="none" fill-rule="evenodd"><g id="fundamentals" transform="translate(135.000000, 154.000000)"><path d="M1199.54319,546.711132 C1198.09597,549.830134 1196.65291,552.90755 1195.21401,555.943378 C1192.96833,560.659309 1190.75176,565.283749 1188.5643,569.816699 C1187.59117,571.825336 1186.61804,573.796545 1185.66987,575.767754 C1174.9405,597.6881 1164.92226,617.075816 1156.41363,633.020154 C1140.68767,662.446699 1110.1675,680.95682 1076.80422,681.302303 L887.605566,683.360845 L885.609405,683.360845 L869.390595,683.535509 L855.517274,683.685221 L812.974088,684.146833 L811.252399,684.146833 L789.59405,684.383877 L788.932821,684.383877 L655.439539,685.831094 L536.28119,687.078695 L522.420345,687.228407 L436.335893,688.164107 L436.236084,688.164107 L380.40595,688.762956 L379.807102,688.762956 L203.271593,690.671785 L150.460653,691.245681 C145.963886,691.297026 141.468212,691.072034 136.99904,690.571977 C135.476967,690.397313 133.954894,690.197697 132.445298,689.960653 C107.815147,686.15864 85.2312518,674.03229 68.4558541,655.601727 C45.7370441,630.612284 29.206334,601.455854 18.1026871,569.816699 C16.4974408,565.25048 15.0003199,560.62604 13.6113244,555.943378 C-24.8272553,426.005758 22.0326296,258.365643 106.370441,146.181382 C109.90531,141.490403 113.498401,136.915867 117.149712,132.457774 L117.237044,132.357965 C143.174664,100.519194 172.256238,73.9203455 203.234165,55.0067179 C258.128599,21.4337812 318.949136,11.9769674 378.771593,40.1602687 C429.386756,64.0143954 476.645873,75.2303263 522.457774,78.2744722 C527.086372,78.5738964 531.714971,78.7984645 536.318618,78.9357006 C641.404031,82.2418426 739.889635,44.3771593 855.542226,19.9366603 C860.145873,18.9635317 864.761996,18.0028791 869.415547,17.0921305 C951.919386,0.673704415 1043.44338,-7.98464491 1152.28407,10.2178503 C1163.5918,12.0651259 1174.74993,14.7337372 1185.66987,18.2024952 C1190.46897,19.7495202 1195.09341,21.4129878 1199.54319,23.1928983 C1251.49328,44.3272553 1279.8263,83.3771593 1291.86564,132.308061 C1293.00512,136.849328 1293.99072,141.46961 1294.82246,146.168906 C1316.16891,263.867562 1253.65163,430.821497 1199.54319,546.711132 Z" id="Path" fill="#F2F2F2"></path><path d="M620.082534,555.943378 C619.579603,560.609845 618.800567,565.242406 617.74952,569.816699 L734.649712,569.816699 L734.649712,555.943378 L620.082534,555.943378 Z M522.457774,634.305182 L536.318618,634.192898 L536.318618,599.921305 C531.565259,599.709213 526.93666,599.497121 522.457774,599.272553 L522.457774,634.305182 Z M231.866603,555.943378 L231.866603,569.816699 L479.515355,569.816699 L479.515355,555.943378 L231.866603,555.943378 Z M1291.92802,132.357965 L1199.60557,132.357965 L1199.60557,23.2053743 C1195.15579,21.4005118 1190.53135,19.7370441 1185.73225,18.2149712 L1185.73225,132.357965 L869.415547,132.357965 L869.415547,17.0547025 C864.761996,17.9654511 860.145873,18.9261036 855.542226,19.8992322 L855.542226,132.357965 L536.318618,132.357965 L536.318618,78.8982726 C531.714971,78.7610365 527.086372,78.5364683 522.457774,78.2370441 L522.457774,132.357965 L203.234165,132.357965 L203.234165,55.0067179 C172.256238,73.9203455 143.174664,100.519194 117.237044,132.357965 L117.149712,132.357965 L117.149712,132.457774 C113.490083,136.949136 109.896993,141.523672 106.370441,146.181382 L117.149712,146.181382 L117.149712,555.943378 L13.5988484,555.943378 C14.9795266,560.62604 16.4766475,565.25048 18.0902111,569.816699 L117.137236,569.816699 L117.137236,686.617083 C122.120673,688.141237 127.207407,689.304515 132.357965,690.097889 C133.867562,690.334933 135.389635,690.534549 136.911708,690.709213 C141.38088,691.20927 145.876554,691.434262 150.373321,691.382917 L203.184261,690.809021 L203.184261,569.791747 L522.457774,569.791747 L522.457774,687.328215 L536.318618,687.178503 L536.318618,569.816699 L855.542226,569.816699 L855.542226,683.797505 L869.415547,683.647793 L869.415547,569.816699 L1185.66987,569.816699 L1185.66987,575.767754 C1186.61804,573.796545 1187.59117,571.825336 1188.5643,569.816699 C1190.75176,565.283749 1192.96833,560.659309 1195.21401,555.943378 C1196.65291,552.915867 1198.09597,549.838452 1199.54319,546.711132 L1199.54319,146.231286 L1294.88484,146.231286 C1294.04479,141.49872 1293.05918,136.87428 1291.92802,132.357965 Z M203.234165,555.943378 L203.234165,146.181382 L522.457774,146.181382 L522.457774,555.943378 L203.234165,555.943378 Z M536.34357,555.943378 L536.34357,146.181382 L855.542226,146.181382 L855.542226,555.943378 L536.34357,555.943378 Z M1185.69482,555.943378 L869.415547,555.943378 L869.415547,146.181382 L1185.66987,146.181382 L1185.69482,555.943378 Z" id="Shape" fill="#000000" fill-rule="nonzero" opacity="0.1"></path><polygon id="Path" fill="#65617D" points="1076.79175 665.78215 1076.79175 682.00096 887.256238 683.747601 885.235125 683.785029 813.198656 684.446257 811.476967 684.471209 789.581574 684.658349 788.932821 684.658349 655.464491 685.893474 436.373321 687.927063 436.18618 687.927063 380.480806 688.451056 379.881958 688.463532 132.357965 690.734165 132.357965 672.020154 190.558541 637.087332 307.333973 636.114203 309.829175 636.101727 310.652591 636.089251 313.147793 636.051823 369.214971 635.590211 371.722649 635.577735 372.521113 635.565259 375.016315 635.552783 392.994242 635.403071 393.46833 635.390595 437.820537 635.016315 438.182342 635.016315 784.266795 632.096929 792.738004 632.034549 793.586372 632.034549 800.048944 631.972169 847.021113 631.585413 849.516315 631.547985 851.824376 631.523033 853.022073 631.523033 867.631478 631.410749 870.525912 631.373321 874.40595 631.348369 886.570058 631.236084 905.870441 631.073896 908.365643 631.048944 912.707294 631.023992 913.518234 631.023992 1006.72649 630.225528"></polygon><polygon id="Path" fill="#000000" opacity="0.2" points="1076.79175 665.78215 1076.79175 682.00096 887.256238 683.747601 885.235125 683.785029 813.198656 684.446257 811.476967 684.471209 789.581574 684.658349 788.932821 684.658349 655.464491 685.893474 436.373321 687.927063 436.18618 687.927063 380.480806 688.451056 379.881958 688.463532 132.357965 690.734165 132.357965 672.020154 190.558541 637.087332 307.333973 636.114203 309.829175 636.101727 310.652591 636.089251 313.147793 636.051823 369.214971 635.590211 371.722649 635.577735 372.521113 635.565259 375.016315 635.552783 392.994242 635.403071 393.46833 635.390595 437.820537 635.016315 438.182342 635.016315 784.266795 632.096929 792.738004 632.034549 793.586372 632.034549 800.048944 631.972169 847.021113 631.585413 849.516315 631.547985 851.824376 631.523033 853.022073 631.523033 867.631478 631.410749 870.525912 631.373321 874.40595 631.348369 886.570058 631.236084 905.870441 631.073896 908.365643 631.048944 912.707294 631.023992 913.518234 631.023992 1006.72649 630.225528"></polygon><path d="M369.414588,603.414587 L369.414587,633.96833 C369.415962,636.922174 367.716153,639.612729 365.047985,640.880038 C364.074618,641.351992 363.010525,641.607374 361.928983,641.628599 L318.387716,642.551823 C317.224875,642.579713 316.071533,642.33623 315.019194,641.840691 C312.302561,640.595526 310.562058,637.879952 310.565259,634.891555 L310.565255,603.414587 L369.414588,603.414587 Z" id="Path" fill="#3F3D56"></path><path d="M369.414588,603.414587 L369.414587,633.96833 C369.415962,636.922174 367.716153,639.612729 365.047985,640.880038 C364.074618,641.351992 363.010525,641.607374 361.928983,641.628599 L318.387716,642.551823 C317.224875,642.579713 316.071533,642.33623 315.019194,641.840691 C312.302561,640.595526 310.562058,637.879952 310.565259,634.891555 L310.565255,603.414587 L369.414588,603.414587 Z" id="Path" fill="#000000" opacity="0.1"></path><path d="M371.90979,603.414587 L371.909789,633.96833 C371.911163,636.922174 370.211355,639.612729 367.543186,640.880038 C366.569819,641.351992 365.505726,641.607374 364.424184,641.628599 L320.882917,642.551823 C319.720076,642.579713 318.566735,642.33623 317.514395,641.840691 C314.797762,640.595526 313.05726,637.879952 313.060461,634.891555 L313.060456,603.414587 L371.90979,603.414587 Z" id="Path" fill="#3F3D56"></path><rect id="Rectangle" fill="#3F3D56" x="849.516315" y="603.402111" width="58.8493282" height="39.2994242"></rect><rect id="Rectangle" fill="#000000" opacity="0.1" x="849.516315" y="603.402111" width="58.8493282" height="39.2994242"></rect><rect id="Rectangle" fill="#3F3D56" x="847.021113" y="603.402111" width="58.8493282" height="39.2994242"></rect><polygon id="Path" fill="#000000" opacity="0.1" points="371.897313 603.402111 371.897313 609.602687 313.047985 611.174664 313.047985 603.402111"></polygon><path d="M475.772553,389.700576 L475.772553,599.547025 C475.741159,602.207485 473.628071,604.375459 470.96929,604.475048 L231.866603,610.837812 L231.804223,610.837812 C229.096607,610.804173 226.909838,608.617405 226.8762,605.909789 L226.8762,389.700576 C226.909838,386.99296 229.096607,384.806192 231.804223,384.772553 L470.84453,384.772553 C473.552146,384.806192 475.738914,386.99296 475.772553,389.700576 Z" id="Path" fill="#65617D"></path><path d="M231.866603,384.772553 L231.866603,610.837812 L231.804223,610.837812 C229.096607,610.804173 226.909838,608.617405 226.8762,605.909789 L226.8762,389.700576 C226.909838,386.99296 229.096607,384.806192 231.804223,384.772553 L231.866603,384.772553 Z" id="Path" fill="#000000" opacity="0.1"></path><polygon id="Path" fill="#6CABDD" points="242.770633 398.171785 464.21977 398.171785 464.21977 583.128599 242.770633 588.119002"></polygon><polygon id="Path" fill="#000000" opacity="0.1" points="905.870441 603.402111 905.870441 611.399232 847.021113 609.827255 847.021113 603.402111"></polygon><path d="M983.546065,389.700576 L983.546065,605.909789 C983.511916,608.641521 981.287607,610.838025 978.555662,610.837812 L739.403071,604.475048 C736.74429,604.375459 734.631202,602.207485 734.599808,599.547025 L734.599808,389.700576 C734.633447,386.99296 736.820215,384.806192 739.527831,384.772553 L978.568138,384.772553 C981.295223,384.779158 983.511985,386.973696 983.546065,389.700576 Z" id="Path" fill="#65617D"></path><path d="M983.546065,389.700576 L983.546065,605.909789 C983.511916,608.641521 981.287607,610.838025 978.555662,610.837812 L978.555662,384.772553 C981.287607,384.772339 983.511916,386.968844 983.546065,389.700576 Z" id="Path" fill="#000000" opacity="0.1"></path><polygon id="Path" fill="#6CABDD" points="967.626679 398.171785 746.177543 398.171785 746.177543 583.128599 967.626679 588.119002"></polygon><path d="M728.411708,389.700576 L728.411708,599.547025 C728.380315,602.207485 726.267226,604.375459 723.608445,604.475048 L484.505758,610.837812 C481.773813,610.838025 479.549504,608.641521 479.515355,605.909789 L479.515355,389.700576 C479.548994,386.99296 481.735762,384.806192 484.443378,384.772553 L723.483685,384.772553 C726.191301,384.806192 728.378069,386.99296 728.411708,389.700576 Z" id="Path" fill="#65617D"></path><polygon id="Path" fill="#6CABDD" points="495.409789 398.171785 716.858925 398.171785 716.858925 583.128599 495.409789 588.119002"></polygon><polygon id="Path" fill="#000000" opacity="0.1" points="1076.79175 665.78215 1076.79175 682.00096 887.256238 683.747601 885.235125 683.785029 813.198656 684.446257 811.476967 684.471209 789.581574 684.658349 788.932821 684.658349 655.464491 685.893474 436.373321 687.927063 436.18618 687.927063 380.480806 688.451056 379.881958 688.463532 132.357965 690.734165 132.357965 672.020154 385.009597 670.360845 385.608445 670.360845 436.747601 670.011516 436.984645 670.011516 790.15547 667.678503 790.517274 667.678503 790.729367 667.666027 791.315739 667.666027 797.291747 667.628599 799.113244 667.628599 892.047025 667.004798 897.536468 666.979846 898.759117 666.96737"></polygon><circle id="Oval" fill="#FBBEBE" cx="607.90595" cy="371.972169" r="64.0393474"></circle><path d="M671.957774,470.545106 C671.957774,470.545106 547.821497,485.516315 559.673704,470.545106 C563.965451,465.130518 565.150672,449.086372 564.913628,430.809021 C564.838772,425.257198 564.639155,419.505758 564.352207,413.779271 C562.979846,386.332054 559.673704,359.508637 559.673704,359.508637 C559.673704,359.508637 668.214971,308.357006 655.738964,348.904031 C650.74856,365.285029 652.382917,388.290787 656.175624,409.886756 C657.285988,416.18714 658.571017,422.362764 659.918426,428.226488 C663.20678,442.528893 667.225154,456.653583 671.957774,470.545106 Z" id="Path" fill="#FBBEBE"></path><path d="M631.448177,465.46737 C645.808061,462.809981 661.016315,457.981766 674.527831,463.546065 C678.083493,465.005758 681.352207,467.139155 684.995202,468.361804 C688.638196,469.584453 692.630518,469.883877 696.423225,470.744722 C709.747601,473.763916 720.551823,483.90691 727.488484,495.696737 C734.425144,507.486564 738.018234,520.823417 741.536468,534.023033 L750.144914,566.24856 C757.630518,594.257198 765.116123,622.502879 766.850288,651.459693 C662.63398,657.424884 558.179656,658.020362 453.902111,653.243762 C460.68906,640.34357 467.62572,626.65739 467.051823,612.072937 C466.477927,597.488484 458.081574,583.103647 461.113244,568.731286 C463.047025,559.573896 469.309981,552.025912 473.140115,543.504798 C484.056622,519.151631 475.560461,486.377159 494.74856,467.837812 C503.381958,459.503839 515.957774,456.347409 527.972169,456.746641 C543.292706,457.258157 558.975048,462.036468 574.133397,464.369482 C593.546065,467.31382 611.885797,469.060461 631.448177,465.46737 Z" id="Path" fill="#FF6584"></path><path d="M794.759117,604.163148 L794.634357,605.947217 L794.634357,606.071977 L794.422265,608.941459 L792.762956,632.034549 L790.754319,659.856046 L790.180422,667.690979 L788.932821,684.458733 L788.932821,684.670825 L655.439539,685.918426 L436.373321,688.288868 L436.373321,689.336852 L436.198656,689.336852 L436.198656,688.288868 L436.198656,687.939539 L436.760077,670.023992 L437.833013,635.016315 L438.756238,605.335893 L438.84357,602.379079 C438.953881,598.772296 440.542911,595.369679 443.2377,592.969854 C445.932489,590.570028 449.495757,589.384303 453.091171,589.690979 C458.979846,590.190019 466.627639,590.801344 475.772553,591.450096 L479.515355,591.724568 C532.326296,595.392514 629.926104,600.133397 728.411708,594.21977 C730.482726,594.107486 732.566219,593.982726 734.649712,593.833013 C749.920345,592.872361 765.178503,591.637236 780.286948,590.090211 C784.153293,589.685117 788.000512,591.013208 790.793579,593.717187 C793.586647,596.421165 795.03871,600.223326 794.759117,604.100768 L794.759117,604.163148 Z" id="Path" fill="#000000" opacity="0.1"></path><path d="M436.335893,689.336852 L436.335893,688.288868 L655.439539,685.90595 L788.932821,684.658349 L789.307102,684.658349 L789.307102,684.446257 L790.554702,667.678503 L791.091171,660.192898 L793.137236,631.984645 L794.746641,609.652591 L794.746641,609.103647 C794.82103,608.074616 794.774973,607.040418 794.609405,606.022073 C794.616385,605.980779 794.616385,605.938607 794.609405,605.897313 C794.26668,603.791769 793.409604,601.803353 792.114203,600.108445 C789.321368,596.527099 784.8782,594.640403 780.361804,595.118042 C765.253359,596.665067 749.995202,597.900192 734.724568,598.860845 C732.641075,599.010557 730.557582,599.135317 728.486564,599.247601 C630.00096,605.098848 532.401152,600.357965 479.590211,596.752399 L475.847409,596.477927 C466.702495,595.829175 459.054702,595.230326 453.166027,594.71881 C446.456423,594.152632 440.403232,598.746379 439.142994,605.360845 C439.017025,606.036283 438.941958,606.720228 438.918426,607.40691 L438.070058,635.053743 L436.909789,670.073896 L436.360845,687.989443 L436.360845,688.338772 L436.360845,689.386756 L436.335893,689.336852 Z" id="Path" fill="#3F3D56"></path><path d="M795.133397,612.908829 L793.598848,632.034549 L791.315739,660.542226 L790.741843,667.678503 L789.494242,683.660269 L789.419386,684.458733 L789.419386,684.670825 L789.232246,686.517274 L789.369482,684.670825 L789.007678,684.670825 L655.514395,685.918426 L436.373321,688.288868 L436.373321,687.939539 L436.984645,670.023992 L438.232246,635.016315 L439.03071,611.74856 C439.110483,609.059213 440.547639,606.593504 442.848369,605.198656 C444.261115,604.332817 445.91295,603.939523 447.564299,604.075816 C450.184261,604.287908 453.403071,604.537428 457.158349,604.8119 C463.259117,605.261036 470.78215,605.785029 479.540307,606.333973 C495.759117,607.357006 516.107486,608.454894 539.425144,609.353167 C604.300384,611.848369 691.881958,612.684261 775.071977,605.398273 C778.814779,605.073896 782.682342,604.712092 786.462572,604.350288 C787.958881,604.201067 789.466454,604.486986 790.804223,605.173704 C791.183149,605.362449 791.542535,605.588109 791.877159,605.847409 C792.96323,606.634362 793.823648,607.692677 794.372361,608.916507 C794.499643,609.159992 794.604057,609.414763 794.684261,609.677543 C795.059042,610.711193 795.212071,611.812151 795.133397,612.908829 Z" id="Path" fill="#000000" opacity="0.1"></path><path d="M371.90979,629.988484 L371.909789,633.96833 C371.911163,636.922174 370.211355,639.612729 367.543186,640.880038 L317.514395,641.840691 C314.797762,640.595526 313.05726,637.879952 313.060461,634.891555 L313.060461,631.148752 L371.90979,629.988484 Z" id="Path" fill="#000000" opacity="0.1"></path><polygon id="Path" fill="#3F3D56" points="372.521113 643.225528 307.333973 644.473129 307.333973 633.65643 372.521113 632.408829"></polygon><polygon id="Path" fill="#000000" opacity="0.1" points="372.521113 643.225528 307.333973 644.473129 307.333973 633.65643 372.521113 632.408829"></polygon><polygon id="Path" fill="#3F3D56" points="375.016315 643.225528 309.829175 644.473129 309.829175 633.65643 375.016315 632.408829"></polygon><path d="M847.395393,632.483685 L847.395393,636.463532 C847.394019,639.417376 849.093828,642.10793 851.761996,643.37524 L901.790787,644.335893 C904.50742,643.090728 906.247923,640.375154 906.244722,637.386756 L906.244722,633.643954 L847.395393,632.483685 Z" id="Path" fill="#000000" opacity="0.1"></path><polygon id="Path" fill="#000000" opacity="0.1" points="846.771593 645.720729 911.958733 646.96833 911.958733 636.151631 846.771593 634.904031"></polygon><polygon id="Path" fill="#3F3D56" points="844.276392 645.720729 909.463532 646.96833 909.463532 636.151631 844.276392 634.904031"></polygon><path d="M567.396353,391.596929 C567.496161,400.330134 563.453935,408.564299 560.023033,416.636276 C547.531358,446.040031 542.121181,477.966915 544.228407,509.84453 C545.139155,523.568138 547.447217,537.291747 545.139155,550.890595 C542.831094,564.489443 534.621881,578.050864 521.434741,581.955854 C543.305182,594.993282 572.910749,593.620921 593.496161,578.637236 C604.462572,570.652591 612.634357,559.511516 620.631478,548.557582 C619.681647,568.234789 613.984329,587.389934 604.025912,604.387716 C640.428552,601.164601 673.757385,582.657146 695.737044,553.460653 C701.114203,546.212092 705.792706,538.252399 707.863724,529.46929 C711.71881,513.25048 706.341651,496.395393 702.237044,480.18906 C698.807008,466.641181 696.235992,452.890205 694.539347,439.018234 C694.002879,434.576775 693.566219,430.010557 694.664107,425.668906 C695.911708,420.591171 699.242802,416.299424 701.700576,411.670825 C708.68714,398.521113 708.849328,382.601727 705.268714,368.154511 C701.6881,353.707294 694.676583,340.382917 687.727447,327.220729 C682.163148,316.666027 676.12476,305.62476 665.944338,299.424184 C659.581574,295.556622 652.220729,293.947217 644.884837,292.387716 L613.233205,285.613244 C606.309021,284.128599 599.185221,282.643954 592.18618,283.729367 C580.371401,285.575816 572.049904,294.109405 564.738964,302.867562 C559.012476,309.679463 545.014395,322.46737 544.028791,331.387716 C543.130518,339.609405 550.391555,353.382917 551.626679,362.053743 C553.24856,373.28215 554.396353,369.539347 560.734165,376.426104 C564.738964,380.692898 567.321497,385.620921 567.396353,391.596929 Z" id="Path" fill="#3F3D56"></path><path d="M374.604607,416.18714 L250.34357,416.18714 C249.999055,416.18714 249.71977,415.907855 249.71977,415.56334 C249.71977,415.218824 249.999055,414.939539 250.34357,414.939539 L374.604607,414.939539 C374.949122,414.939539 375.228407,415.218824 375.228407,415.56334 C375.228407,415.907855 374.949122,416.18714 374.604607,416.18714 Z" id="Path" fill="#F2F2F2"></path><path d="M374.604607,427.415547 L250.34357,427.415547 C249.999055,427.415547 249.71977,427.136262 249.71977,426.791747 C249.71977,426.447231 249.999055,426.167946 250.34357,426.167946 L374.604607,426.167946 C374.949122,426.167946 375.228407,426.447231 375.228407,426.791747 C375.228407,427.136262 374.949122,427.415547 374.604607,427.415547 Z" id="Path" fill="#F2F2F2"></path><path d="M374.604607,438.643954 L250.34357,438.643954 C249.999055,438.643954 249.71977,438.364669 249.71977,438.020154 C249.71977,437.675638 249.999055,437.396353 250.34357,437.396353 L374.604607,437.396353 C374.949122,437.396353 375.228407,437.675638 375.228407,438.020154 C375.228407,438.364669 374.949122,438.643954 374.604607,438.643954 Z" id="Path" fill="#F2F2F2"></path></g></g></svg> 